<?xml version="1.0" standalone="no"?>
<!DOCTYPE svg PUBLIC "-//W3C//DTD SVG 20010904//EN"
 "http://www.w3.org/TR/2001/REC-SVG-20010904/DTD/svg10.dtd">
<svg version="1.0" xmlns="http://www.w3.org/2000/svg"
 width="512.000000pt" height="512.000000pt" viewBox="0 0 512.000000 512.000000"
 preserveAspectRatio="xMidYMid meet">

<g transform="translate(0.000000,512.000000) scale(0.100000,-0.100000)"
fill="#000000" stroke="none">
<path d="M2332 5109 c-202 -18 -464 -76 -648 -144 -251 -92 -561 -272 -764
-443 -114 -95 -272 -257 -360 -367 -154 -194 -320 -488 -405 -719 -117 -317
-171 -703 -147 -1039 26 -362 101 -645 257 -962 251 -512 659 -920 1170 -1170
318 -156 600 -231 962 -257 336 -24 722 30 1039 147 251 92 561 272 764 443
114 95 272 257 360 367 154 194 320 488 405 719 117 317 171 703 147 1038 -26
363 -101 646 -257 963 -251 512 -659 920 -1170 1170 -182 89 -305 135 -479
180 -298 76 -583 100 -874 74z m322 -306 c34 -5 41 -11 62 -57 30 -65 31 -135
3 -193 -13 -28 -73 -92 -171 -185 -233 -222 -272 -294 -323 -600 -31 -189 -57
-277 -90 -310 -30 -30 -150 -71 -260 -89 -128 -21 -587 -18 -702 3 -129 25
-272 72 -380 126 -92 45 -193 122 -193 146 0 17 99 174 164 261 352 466 876
781 1456 875 140 23 363 35 434 23z m519 -83 c376 -106 754 -335 1020 -621
l85 -90 -53 -123 c-101 -233 -102 -235 -294 -431 -240 -244 -292 -331 -322
-534 -25 -173 2 -362 87 -621 114 -346 258 -581 460 -753 75 -63 188 -148 264
-198 l24 -16 -43 -59 c-285 -399 -666 -683 -1123 -839 l-97 -33 -54 71 c-30
40 -91 115 -136 167 -138 160 -148 184 -181 444 -12 87 -27 189 -35 225 -53
253 -153 365 -385 432 -146 43 -227 51 -533 56 -289 5 -300 5 -368 -17 -109
-35 -179 -88 -374 -281 -165 -162 -188 -181 -265 -218 -46 -23 -89 -41 -96
-41 -7 0 -42 46 -79 103 -180 279 -305 625 -345 962 -15 118 -14 395 0 515 17
137 45 268 86 402 l37 116 66 -46 c136 -94 355 -180 567 -223 91 -18 152 -23
377 -27 393 -6 597 21 762 102 91 45 139 86 186 159 53 81 83 182 120 392 34
201 61 274 126 340 22 22 92 91 156 154 132 129 179 193 214 294 21 60 24 84
21 169 -2 65 1 98 8 98 6 0 59 -13 117 -30z m1396 -1162 c112 -227 190 -488
221 -738 15 -124 12 -411 -5 -547 -26 -198 -98 -458 -172 -620 l-20 -43 -59
41 c-224 156 -330 273 -429 474 -139 280 -214 585 -185 759 19 122 46 162 251
371 189 194 233 252 290 387 13 32 27 58 31 58 3 0 38 -64 77 -142z m-2399
-2088 c88 -13 217 -55 243 -77 29 -27 55 -135 82 -336 46 -345 77 -417 270
-637 l74 -85 -42 -7 c-68 -11 -395 -10 -492 2 -396 48 -778 200 -1087 433 -94
71 -248 206 -248 218 0 5 28 23 63 40 91 46 126 75 297 249 95 96 176 170 210
189 l55 32 250 -5 c138 -3 284 -10 325 -16z"/>
</g>
</svg>
